# xmcd
# Copyright (c) 1998 CDDB Inc.
#
# Track frame offsets:
#	150
#	20997
#	40316
#	59032
#	79091
#	107503
#	138244
#	172875
#	189489
#	210960
#	238539
#	265836
#	289514
#	312272
#
# Disc length: 4505 seconds
#
# Revision: 0
# Processed by: cddbd v1.4PL0 Copyright (c) Steve Scherf et al.
# Submitted via: audiograbber 1.70
#
DISCID=bf11970e
DTITLE=Hillsong Music Ukraine - Лучший друг
DYEAR=1900
DGENRE=
TTITLE0=Во Христе я все смогу
TTITLE1=Аллилуйя
TTITLE2=Славь Его!
TTITLE3=Бог верный
TTITLE4=Там, где Ты
TTITLE5=Любовь Твоя
TTITLE6=Я так люблю Тебя
TTITLE7=Твоя любовь
TTITLE8=Лучший Друг
TTITLE9=Для Тебя
TTITLE10=Позови
TTITLE11=Ты сказал
TTITLE12=Верим мы
TTITLE13=Каждый день
EXTD=
EXTT0=
EXTT1=
EXTT2=
EXTT3=
EXTT4=
EXTT5=
EXTT6=
EXTT7=
EXTT8=
EXTT9=
EXTT10=
EXTT11=
EXTT12=
EXTT13=
PLAYORDER=
